<svg width="689" height="776" viewBox="0 0 689 776" xmlns="http://www.w3.org/2000/svg">
    <g fill="#FFF" fill-rule="evenodd">
        <path d="M344.138 701.736c-4.443-19.592-9.804-38.438-14.108-58.243 20.627.903 40.25-.987 59.934-4.178 5.217 19.418 9.273 38.43 14.69 57.537l25.068-6.017-13.975-56.766 56.003-20.875c4.58 18.213 9.223 36.668 13.893 55.241 110.719-51.222 205.805-193.675 167.25-357.36C613.023 141.809 459.33 59.42 335.64 66.182l14.746 59.76-59.173 8.15-15.356-61.113-25.121 6.69 15.339 62.116c-19.454 6.285-37.398 14.393-55.12 24.484-5.37-21.422-10.54-42.034-15.75-62.806-120.03 61.995-202.562 215.25-153.345 374.87 48.441 157.106 194.586 227.18 302.277 223.404m148.505-5.2c1.88 7.659 3.681 15.11 5.544 22.543 1.154 4.611 1.741 9.215.564 13.923-1.663 6.645-4.897 12.383-10.855 15.822-8.771 5.059-18.218 8.057-28.434 5.407-9.423-2.445-15.565-8.671-18.28-18.069-1.715-5.93-3.1-11.954-4.792-18.556-8.51 2.01-16.737 3.95-25.305 5.974 1.493 6.006 2.868 11.433 4.19 16.873 3.852 15.847-3.834 29.094-19.528 33.255-4.484 1.188-9.174 2.362-13.748 2.289-11.324-.192-20.625-7.775-23.83-18.906-2.026-7.033-3.63-14.189-5.443-21.284-.457-1.786-.996-3.551-1.58-5.619-92.21.107-172.918-30.04-240.772-92.775C56.295 587.415 22.042 525.652 7.326 453.367-8.132 377.431.876 304.127 34.322 234.26c33.442-69.864 85.11-122.314 153.685-158.628-.573-2.81-1.07-5.53-1.69-8.22-1.092-4.756-2.496-9.452-3.346-14.25-2.344-13.228 5.091-25.4 17.846-29.404 3.206-1.005 6.493-1.804 9.789-2.458 13.278-2.633 25.783 4.798 29.863 17.797 1.393 4.437 2.434 8.984 3.719 13.793l24.93-6.562c-1.023-4.402-2.104-8.684-3.007-13.002-2.31-11.05 2.18-21.996 11.745-27.652 6.717-3.971 14.232-5.88 22.003-5.655 11.457.33 20.602 7.722 23.846 18.894 1.824 6.284 3.305 12.669 4.998 19.233 93.517-2.653 175.8 26.146 245.649 88.518 54.466 48.634 89.758 109.247 105.736 180.661 17.589 78.616 9.226 154.725-25.833 227.325-35.026 72.529-89.37 126.058-161.612 161.887"/>
        <path d="M574.916 396.188c0 6.755.21 12.743-.033 18.71-1.617 39.675-11.967 76.672-33.5 110.232-18.93 29.5-43.676 52.714-74.211 69.615-33.855 18.74-70.244 29.362-108.566 33.143-37.316 3.682-73.379-1.728-107.787-17.013-21.55-9.572-40.744-22.696-57.81-39.107-29.103-27.986-49.205-61.6-62.422-99.645-8.112-23.345-13.592-47.29-16.114-71.877-4.564-44.503 1.271-87.408 20.397-128.07 8.932-18.99 20.9-35.94 35.229-51.26 33.602-35.923 75.549-56.22 122.687-66.88 24.35-5.507 48.968-8.19 73.947-6.567 47.112 3.06 88.402 20.28 123.84 51.708 21.739 19.28 38.302 42.514 51.513 68.308.574 1.12.953 2.343 1.71 4.23L428.168 300.71c-4.688-5.204-8.847-10.283-13.474-14.88-20.967-20.824-46.377-31.262-75.714-31.089-20.627.123-40.376 4.932-58.544 15.129-26.07 14.633-41.02 37.691-48.406 66.157-4.83 23.201-4.941 42.068-1.27 63.214 4.313 24.84 11.798 48.574 25.395 69.96 15.681 24.667 36.905 42.158 65.456 49.681 18.202 4.795 36.283 3.29 54.218-1.633 31.423-8.625 55.816-26.372 71.14-55.804 4.62-8.874 7.885-18.252 9.991-28.04.549-2.556 1.086-5.115 1.724-8.127l116.232-29.089"/>
    </g>
</svg>
